<?xml version="1.0" encoding="utf-8"?>
<!DOCTYPE svg PUBLIC "-//W3C//DTD SVG 1.0//EN" "http://www.w3.org/TR/2001/REC-SVG-20010904/DTD/svg10.dtd">
<svg version="1.0" xmlns="http://www.w3.org/2000/svg" width="1024px" height="1024px" viewBox="0 0 1024 1024" preserveAspectRatio="xMidYMid meet">
 <g fill="#000000">
  <path d="M529.5 624.1 c-3.3 -1 -7.2 -2.3 -8.7 -2.9 -3.3 -1.4 -41.7 -22.7 -64.8 -36 -9.1 -5.3 -21.4 -12.3 -27.5 -15.7 -6 -3.4 -19.8 -11.1 -30.5 -17.2 -10.7 -6 -22.6 -12.7 -26.5 -14.8 -9 -4.9 -18.4 -14.3 -22.4 -22.3 -6.4 -12.6 -6.1 -7.5 -6.1 -120.5 0 -113.4 -0.2 -108.8 6.2 -121 4.2 -7.9 14.4 -17.2 24.8 -22.6 4.7 -2.4 21.1 -11.7 36.5 -20.6 53.2 -30.8 101 -57.8 108.2 -61.2 9.8 -4.5 20.8 -6.7 30.3 -6 15.4 1.2 18.9 2.9 90.5 44.6 22 12.9 47.4 27.6 56.5 32.8 9.1 5.3 19.6 11.3 23.3 13.5 8.7 5 16.3 12.7 20.4 20.4 6.5 12.1 6.3 8.6 6.3 120.1 0 69.6 -0.3 102.9 -1.1 106.5 -0.6 2.9 -2.7 8.7 -4.6 12.8 -4.9 10.3 -12.7 17.7 -26.8 25.6 -13 7.3 -102.8 58.5 -123.3 70.4 -7.9 4.5 -18.2 9.8 -23 11.8 -8 3.3 -9.7 3.6 -20.2 3.9 -9 0.2 -12.8 -0.1 -17.5 -1.6z m14.3 -107 c0.6 -1.9 2.3 -5.2 3.7 -7.3 2.2 -3.3 27 -25.2 51.2 -45.1 13 -10.8 17.3 -19.3 14.7 -29.6 -1.7 -6.4 -4.9 -12 -10.7 -18.6 -4.4 -4.9 -4.4 -4.9 -5.5 5.3 -2.1 18 -5.9 24.4 -23.1 38.2 -25 20.1 -43.9 37 -47.3 42.2 -9.9 15 -13 27.1 -10.3 40.5 2.5 12.3 8.4 23.3 17.4 32.2 7.6 7.6 7.6 7.6 8.2 -23.4 0.3 -19.4 1 -32.3 1.7 -34.4z m52.8 45.3 c4.2 -2 8.4 -10 8.4 -15.9 0 -4 0.4 -4.5 9.3 -12.2 30.5 -26.6 45.4 -38.8 50 -41.2 3.5 -1.8 5.8 -3.9 7.2 -6.4 2 -3.6 2 -3.7 0 -7.3 -1.3 -2.4 -3.5 -4.4 -6.3 -5.8 -4.4 -2.1 -4.4 -2.1 -8.8 0.4 -4.4 2.5 -50.2 41.1 -62.5 52.7 -6.8 6.4 -11.4 14.4 -12.6 21.7 -0.7 4.3 2.7 11 7 13.6 3.9 2.4 4 2.4 8.3 0.4z m-142.4 -75.6 c13.1 -6.8 23.8 -12.5 23.8 -12.9 0 -0.3 -3 -2 -6.7 -3.7 -6.8 -3.3 -6.8 -3.3 -33.5 -3 -26.7 0.3 -26.7 0.3 -18.2 16.1 4.7 8.6 9.1 15.7 9.7 15.7 0.5 0 11.7 -5.5 24.9 -12.2z m64.6 -35.7 c14 -7.1 23.1 -16.2 29.2 -29.3 4.4 -9.4 6 -16.1 5.9 -24.8 -0.2 -12.6 0 -12.4 -10.6 -13.1 -17.6 -1.3 -29 -6.3 -40.3 -17.8 -12.8 -12.9 -18 -26.2 -18 -46.1 0 -22.1 7 -37.8 23.1 -51.5 6.1 -5.2 16.7 -10.6 24.9 -12.6 8 -2 29.8 -1.7 38 0.5 8.7 2.4 20 8.4 28.6 15.4 6 4.8 63.8 57.8 93.6 85.9 4.7 4.4 9.5 8.4 10.7 8.8 4.3 1.3 12.1 -5.6 12.1 -10.9 0 -3.9 -4.6 -9 -23.3 -25.8 -18.2 -16.4 -45.1 -40.9 -67.3 -61.3 -18.6 -17.2 -28.8 -23.7 -46.2 -29.5 -21.7 -7.2 -39.5 -6.3 -58.7 2.9 -8.1 3.9 -59.1 34.5 -87 52.3 -4.3 2.7 -27 27.7 -60.3 66.6 -5.4 6.2 -5.4 6.2 21.2 6.2 26.6 0 26.6 0 26.6 4.2 0 3.7 -0.6 4.8 -6.2 10.8 -3.5 3.6 -9.9 10.6 -14.4 15.6 -8.1 8.9 -8.1 8.9 -0.6 22.2 7.4 13.2 7.4 13.2 40 13.2 32.5 0 32.5 0 45.6 6.9 7.2 3.8 15.8 8.5 19.1 10.4 3.3 1.9 6.6 3.6 7.3 3.6 0.7 0.1 3.8 -1.2 7 -2.8z m189.9 -2.1 c1.8 -1 3.9 -3.3 4.8 -5.1 2 -3.8 0.9 -7.1 -3.9 -12.1 -10.4 -10.7 -87.4 -80.7 -91.1 -82.8 -4.3 -2.4 -4.4 -2.4 -7.9 -0.7 -3.8 1.8 -7.6 6.9 -7.6 10.1 0 2.2 8.6 10.9 30.5 30.6 8.3 7.5 24.1 21.9 35.3 32 30.8 28 33.2 30 35 30 0.9 0 3.1 -0.9 4.9 -2z m-147.1 -103.8 c9.7 -5 15.3 -13.1 16.2 -23.7 0.4 -5.2 0 -7.1 -2 -11.6 -5 -10.7 -16.2 -18.5 -26.3 -18.3 -14.5 0.2 -29.7 16.5 -28.2 30.2 1.1 10.2 9.8 20.8 20.2 24.7 5.4 2 14.9 1.4 20.1 -1.3z"/>
  <path d="M440.5 359.1 c-8.1 -3.7 -12.3 -11.9 -11.1 -22 0.8 -6.7 2.9 -10.4 8 -13.9 3.2 -2.2 5.2 -2.7 11.2 -3 9.3 -0.5 11.5 0 16 4 4.8 4.3 6.4 8.3 6.4 16.3 0 7.8 -1.6 12.2 -5.9 15.8 -5.9 4.9 -17.2 6.2 -24.6 2.8z"/>
  <path d="M542.4 337 c-1.8 -0.6 -4.8 -2.8 -6.8 -5 -3.5 -3.9 -3.6 -4.3 -3.6 -11.8 0 -8.8 1.8 -12.9 7.2 -16.2 4.4 -2.7 15.8 -2.8 20.8 -0.2 7 3.7 10.3 16.5 6.3 24.9 -3.3 7.1 -14.9 11.1 -23.9 8.3z"/>
 </g>
 <g fill="#ffffff">
  <path d="M537.3 583.7 c-12.2 -9.1 -20.8 -22.9 -23.9 -38.6 -3.1 -16.1 0.1 -30.3 10.4 -45.9 3.4 -5.2 22.4 -22.1 47.3 -42.2 12.1 -9.8 16.5 -14.8 19.6 -22.4 2.7 -6.6 4.3 -19.3 3.4 -26.3 -0.4 -2.9 -0.4 -5.3 -0.1 -5.3 1.6 0 15.8 14.9 18.3 19.2 1.5 2.7 3.5 7.7 4.4 11.3 3.2 12.9 -1.2 22.8 -15 34.2 -24.6 20.3 -49 41.8 -51.3 45.3 -4.7 7.1 -5.4 12.8 -5.4 45.3 0 16.7 -0.4 29.7 -0.9 29.7 -0.5 0 -3.5 -2 -6.8 -4.3z"/>
  <path d="M585.3 565 c-11.3 -6.8 -9 -27.1 4.5 -40.2 8.5 -8.3 57 -49.6 62.1 -52.9 8.5 -5.5 19 -3 23.1 5.6 3.5 7.3 0.7 14.3 -7.5 18.5 -4.3 2.2 -20.8 15.8 -50.2 41.3 -8.9 7.7 -9.3 8.2 -9.3 12.2 0 5.9 -4.2 13.9 -8.4 15.9 -4.6 2.2 -10.4 2 -14.3 -0.4z"/>
  <path d="M424.7 500.8 c-6.4 -11.3 -12.8 -23 -16.1 -29.5 -3.6 -7.3 -3.6 -7.3 27.9 -7.3 31.5 0 31.5 0 39.3 3.9 13.3 6.8 15.1 4.6 -18.7 21.9 -30 15.3 -30 15.3 -32.4 11z"/>
  <path d="M503.5 454.4 c-4.4 -2.5 -13.9 -7.7 -21.1 -11.5 -13.1 -6.9 -13.1 -6.9 -45.6 -6.9 -32.6 0 -32.6 0 -40.7 -14.4 -4.5 -8 -8.1 -15 -8.1 -15.6 0 -1.1 9.2 -11.5 23.8 -27 3.4 -3.7 6.2 -7.2 6.2 -7.8 0 -0.9 -7.9 -1.2 -28.9 -1.4 -28.9 -0.3 -28.9 -0.3 -23.4 -6.8 33.3 -39.1 60.6 -69.4 64.6 -71.8 1.8 -1.1 8.8 -5.4 15.7 -9.7 56.9 -35.3 74.2 -45 85.5 -48 14.6 -3.9 34.4 -2.9 50.7 2.5 17.4 5.8 27.6 12.3 46.2 29.5 22.2 20.4 49.1 44.9 67.3 61.3 10.5 9.5 20.2 18.9 21.4 20.9 2.7 4.3 2.9 10.5 0.5 15.1 -3.6 6.9 -13.1 9.4 -19.3 5 -1.7 -1.3 -14.5 -12.9 -28.5 -25.9 -73.2 -68.1 -77.2 -71.7 -89.4 -77.7 -9 -4.5 -17.5 -6.4 -28.9 -6.5 -11.7 -0.1 -18.4 1.3 -28 5.8 -26.6 12.7 -40.9 43.2 -33.5 71.9 2.8 11.2 7.3 19 16 27.7 11.3 11.5 22.7 16.5 40.3 17.8 9 0.6 9.1 0.6 9.9 3.6 1.4 4.7 1.3 20.5 -0.1 26.5 -1.9 7.7 -7.4 19.4 -12.2 25.7 -4.8 6.5 -13.5 13.1 -24.1 18.4 -4.3 2.1 -7.9 3.9 -8 3.9 -0.2 0 -3.9 -2.1 -8.3 -4.6z m-48.3 -97.4 c10.1 -2.9 15.5 -13.7 11.4 -23.3 -1.6 -3.9 -7.6 -9.4 -11.2 -10.3 -6.8 -1.7 -16.8 2.1 -20.3 7.8 -5.5 8.8 -1.6 20.4 8.4 24.9 4.6 2.1 6.6 2.3 11.7 0.9z"/>
  <path d="M699.5 453.6 c-1.6 -0.7 -7.5 -5.6 -13 -10.8 -5.5 -5.1 -17 -15.6 -25.5 -23.3 -33 -29.6 -45.8 -41.3 -53.2 -48.6 -7.6 -7.4 -7.8 -7.6 -7.8 -12.5 0 -6.5 2.8 -11 8.5 -13.5 8.2 -3.6 11.3 -1.9 33.4 18.6 9.7 8.9 29.5 27.1 44.1 40.5 14.6 13.4 27.7 26.1 29.3 28.3 5.2 7.6 2.7 17 -5.6 20.7 -5 2.3 -6.2 2.4 -10.2 0.6z"/>
  <path d="M538.5 349.4 c-21.1 -7.5 -27.5 -35.6 -11.6 -51.4 7 -6.9 12.9 -9.4 22.6 -9.5 9.5 0 16.8 2.9 23 9.1 7.7 7.8 10.8 20.9 7.7 31.9 -2.7 9.5 -11 18 -20.2 20.5 -5 1.4 -16.8 1.1 -21.5 -0.6z m19.6 -17.9 c3.8 -2.5 6.9 -7.7 6.9 -11.7 0 -1.3 -1 -4.4 -2.2 -6.8 -7.2 -14 -27.8 -8.6 -27.8 7.2 0 4.1 0.5 5.4 3.6 8.8 5.8 6.4 12.2 7.2 19.5 2.5z"/>
 </g>
</svg>